<?xml version="1.0" encoding="UTF-8" standalone="no"?>
<!-- Created with Inkscape (http://www.inkscape.org/) -->

<svg
   xmlns:dc="http://purl.org/dc/elements/1.1/"
   xmlns:cc="http://creativecommons.org/ns#"
   xmlns:rdf="http://www.w3.org/1999/02/22-rdf-syntax-ns#"
   xmlns:svg="http://www.w3.org/2000/svg"
   xmlns="http://www.w3.org/2000/svg"
   xmlns:sodipodi="http://sodipodi.sourceforge.net/DTD/sodipodi-0.dtd"
   xmlns:inkscape="http://www.inkscape.org/namespaces/inkscape"
   id="svg3899"
   version="1.1"
   inkscape:version="0.91 r13725"
   width="4.3910556in"
   height="4.3910556in"
   xml:space="preserve"
   sodipodi:docname="CircleExp.svg"
   inkscape:export-filename="C:\Users\Public\Documents\Sean's Logo\EdYotherCropped.png"
   inkscape:export-xdpi="90"
   inkscape:export-ydpi="90"><metadata
     id="metadata3905"><rdf:RDF><cc:Work
         rdf:about=""><dc:format>image/svg+xml</dc:format><dc:type
           rdf:resource="http://purl.org/dc/dcmitype/StillImage" /><dc:title></dc:title></cc:Work></rdf:RDF></metadata><defs
     id="defs3903"><clipPath
       clipPathUnits="userSpaceOnUse"
       id="clipPath3937"><path
         d="M 0,792 612,792 612,0 0,0 0,792 Z"
         id="path3939"
         inkscape:connector-curvature="0" /></clipPath><clipPath
       clipPathUnits="userSpaceOnUse"
       id="clipPath4153"><path
         d="m 50,0 562,0 0,70.72 -562,0 L 50,0 Z"
         id="path4155"
         inkscape:connector-curvature="0" /></clipPath><clipPath
       clipPathUnits="userSpaceOnUse"
       id="clipPath4163"><path
         d="M 0,792 612,792 612,0 0,0 0,792 Z"
         id="path4165"
         inkscape:connector-curvature="0" /></clipPath><clipPath
       clipPathUnits="userSpaceOnUse"
       id="clipPath4203"><path
         d="M 0,792 612,792 612,0 0,0 0,792 Z"
         id="path4205"
         inkscape:connector-curvature="0" /></clipPath><clipPath
       clipPathUnits="userSpaceOnUse"
       id="clipPath4215"><path
         d="M 0,792 612,792 612,0 0,0 0,792 Z"
         id="path4217"
         inkscape:connector-curvature="0" /></clipPath><clipPath
       clipPathUnits="userSpaceOnUse"
       id="clipPath4271"><path
         d="M 0,792 612,792 612,0 0,0 0,792 Z"
         id="path4273"
         inkscape:connector-curvature="0" /></clipPath></defs><sodipodi:namedview
     pagecolor="#ffffff"
     bordercolor="#666666"
     borderopacity="1"
     objecttolerance="10"
     gridtolerance="10"
     guidetolerance="10"
     inkscape:pageopacity="0"
     inkscape:pageshadow="2"
     inkscape:window-width="1920"
     inkscape:window-height="1017"
     id="namedview3901"
     showgrid="false"
     inkscape:zoom="0.94624168"
     inkscape:cx="30.26763"
     inkscape:cy="127.86941"
     inkscape:window-x="1912"
     inkscape:window-y="-8"
     inkscape:window-maximized="1"
     inkscape:current-layer="g4159"
     showguides="true"
     inkscape:guide-bbox="true"
     units="in"
     width="4in"
     fit-margin-top="0"
     fit-margin-left="0"
     fit-margin-right="0"
     fit-margin-bottom="0" /><g
     inkscape:groupmode="layer"
     id="layer1"
     inkscape:label="Background"
     style="display:inline"
     transform="translate(-174.84413,-356.6029)"><rect
       style="fill:#000000;fill-opacity:1"
       id="rect3625"
       width="444.00827"
       height="453.20969"
       x="144.36824"
       y="320.64114"
       inkscape:export-filename="C:\Users\Public\Documents\Sean's Logo\rect3548.png"
       inkscape:export-xdpi="300"
       inkscape:export-ydpi="300" /></g><g
     id="g3907"
     inkscape:groupmode="layer"
     inkscape:label="edyotherlogo"
     transform="matrix(1.25,0,0,-1.25,-174.84413,633.39712)"
     style="display:inline"><g
       id="g3935"><g
         id="g3909"><g
           transform="matrix(527.99998,0,0,380.15999,42,205.84001)"
           id="g3911" /></g><g
         id="g4149"><g
           clip-path="url(#clipPath4153)"
           id="g4151"><g
             transform="matrix(-611.99998,0,0,-841.43999,662,70.719772)"
             id="g4157" /></g></g><g
         inkscape:export-ydpi="90"
         inkscape:export-xdpi="90"
         inkscape:export-filename="C:\Users\Public\Documents\Sean's Logo\rect3548.png"
         id="g4159"><g
           clip-path="url(#clipPath4163)"
           id="g4161"
           inkscape:export-xdpi="300"
           inkscape:export-ydpi="300"><g
             transform="translate(454.5313,348.6387)"
             id="g4167"><path
               inkscape:connector-curvature="0"
               id="path4169"
               style="fill:#000000;fill-opacity:1;fill-rule:nonzero;stroke:none"
               d="m 0,0 c 0,-86.476 -70.102,-156.577 -156.578,-156.577 -86.475,0 -156.578,70.101 -156.578,156.577 0,86.476 70.103,156.579 156.578,156.579 C -70.102,156.579 0,86.476 0,0" /></g><g
             transform="translate(454.5313,348.6387)"
             id="g4171"><path
               inkscape:connector-curvature="0"
               id="path4173"
               style="fill:none;stroke:#ffffff;stroke-width:3;stroke-linecap:butt;stroke-linejoin:miter;stroke-miterlimit:4;stroke-dasharray:none;stroke-opacity:1"
               d="m 0,0 c 0,-86.476 -70.102,-156.577 -156.578,-156.577 -86.475,0 -156.578,70.101 -156.578,156.577 0,86.476 70.103,156.579 156.578,156.579 C -70.102,156.579 0,86.476 0,0 Z" /></g><g
             transform="translate(444.6934,348.2109)"
             id="g4175"><path
               inkscape:connector-curvature="0"
               id="path4177"
               style="fill:#000000;fill-opacity:1;fill-rule:nonzero;stroke:none"
               d="m 0,0 c 0,-81.042 -65.698,-146.738 -146.739,-146.738 -81.042,0 -146.74,65.696 -146.74,146.738 0,81.042 65.698,146.739 146.74,146.739 C -65.698,146.739 0,81.042 0,0" /></g><g
             transform="translate(444.6934,348.2109)"
             id="g4179"><path
               inkscape:connector-curvature="0"
               id="path4181"
               style="fill:none;stroke:#ffffff;stroke-width:3;stroke-linecap:butt;stroke-linejoin:miter;stroke-miterlimit:4;stroke-dasharray:none;stroke-opacity:1"
               d="m 0,0 c 0,-81.042 -65.698,-146.738 -146.739,-146.738 -81.042,0 -146.74,65.696 -146.74,146.738 0,81.042 65.698,146.739 146.74,146.739 C -65.698,146.739 0,81.042 0,0 Z" /></g><g
             transform="translate(399.3438,349.9229)"
             id="g4183"><path
               inkscape:connector-curvature="0"
               id="path4185"
               style="fill:#000000;fill-opacity:1;fill-rule:nonzero;stroke:none"
               d="m 0,0 c 0,-55.998 -45.395,-101.391 -101.391,-101.391 -55.995,0 -101.389,45.393 -101.389,101.391 0,55.997 45.394,101.39 101.389,101.39 C -45.395,101.39 0,55.997 0,0" /></g><g
             transform="translate(399.3438,349.9229)"
             id="g4187"><path
               inkscape:connector-curvature="0"
               id="path4189"
               style="fill:none;stroke:#ffffff;stroke-width:3;stroke-linecap:butt;stroke-linejoin:miter;stroke-miterlimit:4;stroke-dasharray:none;stroke-opacity:1"
               d="m 0,0 c 0,-55.998 -45.395,-101.391 -101.391,-101.391 -55.995,0 -101.389,45.393 -101.389,101.391 0,55.997 45.394,101.39 101.389,101.39 C -45.395,101.39 0,55.997 0,0 Z" /></g><g
             transform="translate(381.376,348.2109)"
             id="g4191"><path
               inkscape:connector-curvature="0"
               id="path4193"
               style="fill:#000000;fill-opacity:1;fill-rule:nonzero;stroke:none"
               d="m 0,0 c 0,-46.073 -37.35,-83.424 -83.424,-83.424 -46.072,0 -83.422,37.351 -83.422,83.424 0,46.073 37.35,83.423 83.422,83.423 C -37.35,83.423 0,46.073 0,0" /></g><g
             transform="translate(381.376,348.2109)"
             id="g4195"><path
               inkscape:connector-curvature="0"
               id="path4197"
               style="fill:none;stroke:#ffffff;stroke-width:3;stroke-linecap:butt;stroke-linejoin:miter;stroke-miterlimit:4;stroke-dasharray:none;stroke-opacity:1"
               d="m 0,0 c 0,-46.073 -37.35,-83.424 -83.424,-83.424 -46.072,0 -83.422,37.351 -83.422,83.424 0,46.073 37.35,83.423 83.422,83.423 C -37.35,83.423 0,46.073 0,0 Z" /></g></g></g><g
         inkscape:export-ydpi="300"
         inkscape:export-xdpi="300"
         inkscape:export-filename="C:\Users\Public\Documents\Sean's Logo\rect3548.png"
         id="g4199"><g
           clip-path="url(#clipPath4203)"
           id="g4201"><g
             transform="translate(276,428.333)"
             id="g4207"><path
               sodipodi:nodetypes="ccccccscccc"
               inkscape:connector-curvature="0"
               id="path4209"
               style="fill:#ffffff;fill-opacity:1;fill-rule:nonzero;stroke:none"
               d="M 0,0 4.667,2 32,2.333 39.667,1.667 c 0,0 2.187,-73.186 3.833,-86.5 5.5,-44.5 58.5,-56.5 90,-100.5 18.975,-26.504 6,-42.5 -2,-50.5 -8,-8 -196,-2 -196,-2 0,0 -49.7464,-9.90378 -30.395178,39.41929 C -46.766244,-125.20407 -6,-129.333 -1,-88.833 1.64,-67.453 0,0 0,0" /></g></g></g><g
         inkscape:export-ydpi="300"
         inkscape:export-xdpi="300"
         inkscape:export-filename="C:\Users\Public\Documents\Sean's Logo\rect3548.png"
         id="g4211"><g
           clip-path="url(#clipPath4215)"
           id="g4213"><text
             style="font-style:normal;font-variant:normal;font-weight:normal;font-stretch:normal;font-family:Georgia;-inkscape-font-specification:Georgia"
             id="text4219"
             transform="matrix(-0.01068179,0.99994295,0.99994295,0.01068179,190.5115,341.4731)"><tspan
               id="tspan4221"
               y="0"
               x="0"
               style="font-style:normal;font-variant:normal;font-weight:normal;font-stretch:normal;font-size:41.99669647px;font-family:Georgia;-inkscape-font-specification:Georgia;writing-mode:lr-tb;fill:#ffffff;fill-opacity:1;fill-rule:nonzero;stroke:none">E</tspan></text>
<text
             style="font-style:normal;font-variant:normal;font-weight:normal;font-stretch:normal;font-family:Georgia;-inkscape-font-specification:Georgia"
             id="text4223"
             transform="matrix(0.1845338,0.98282617,0.98282617,-0.1845338,193.4041,371.4146)"><tspan
               id="tspan4225"
               y="0"
               x="0"
               style="font-style:normal;font-variant:normal;font-weight:normal;font-stretch:normal;font-size:41.99664307px;font-family:Georgia;-inkscape-font-specification:Georgia;writing-mode:lr-tb;fill:#ffffff;fill-opacity:1;fill-rule:nonzero;stroke:none">D</tspan></text>
<text
             style="font-style:normal;font-variant:normal;font-weight:normal;font-stretch:normal;font-family:Georgia;-inkscape-font-specification:Georgia"
             id="text4227"
             transform="matrix(0.73711826,0.67576377,0.67576377,-0.73711826,217.6625,423.1669)"><tspan
               id="tspan4229"
               y="0"
               x="0"
               style="font-style:normal;font-variant:normal;font-weight:normal;font-stretch:normal;font-size:41.99692535px;font-family:Georgia;-inkscape-font-specification:Georgia;writing-mode:lr-tb;fill:#ffffff;fill-opacity:1;fill-rule:nonzero;stroke:none">Y</tspan></text>
<text
             style="font-weight:normal;font-family:Georgia;-inkscape-font-specification:Georgia"
             id="text4231"
             transform="matrix(0.92309855,0.38456348,0.38456348,-0.92309855,235.8019,441.154)"><tspan
               id="tspan4233"
               y="0"
               x="0"
               style="font-variant:normal;font-weight:normal;font-stretch:normal;font-size:41.99670792px;font-family:Georgia;-inkscape-font-specification:Georgia;writing-mode:lr-tb;fill:#ffffff;fill-opacity:1;fill-rule:nonzero;stroke:none">O</tspan></text>
<text
             style="font-weight:normal;font-family:Georgia;-inkscape-font-specification:Georgia"
             id="text4235"
             transform="matrix(0.99879614,-0.04905379,-0.04905379,-0.99879614,293.5177,459.3546)"><tspan
               id="tspan4237"
               y="0"
               x="0"
               style="font-variant:normal;font-weight:normal;font-stretch:normal;font-size:41.99675751px;font-family:Georgia;-inkscape-font-specification:Georgia;writing-mode:lr-tb;fill:#ffffff;fill-opacity:1;fill-rule:nonzero;stroke:none">H</tspan></text>
<text
             style="font-weight:normal;font-family:Georgia;-inkscape-font-specification:Georgia"
             id="text4239"
             transform="matrix(0.90359194,-0.42839421,-0.42839421,-0.90359194,329.8222,455.9775)"><tspan
               id="tspan4241"
               y="0"
               x="0"
               style="font-variant:normal;font-weight:normal;font-stretch:normal;font-size:41.9968338px;font-family:Georgia;-inkscape-font-specification:Georgia;writing-mode:lr-tb;fill:#ffffff;fill-opacity:1;fill-rule:nonzero;stroke:none">E</tspan></text>
<text
             style="font-weight:normal;font-family:Georgia;-inkscape-font-specification:Georgia"
             id="text4243"
             transform="matrix(0.71821073,-0.69582566,-0.69582566,-0.71821073,355.0912,445.8381)"><tspan
               id="tspan4245"
               y="0"
               x="0"
               style="font-variant:normal;font-weight:normal;font-stretch:normal;font-size:41.99672699px;font-family:Georgia;-inkscape-font-specification:Georgia;writing-mode:lr-tb;fill:#ffffff;fill-opacity:1;fill-rule:nonzero;stroke:none">R</tspan></text>
<text
             style="font-weight:normal;font-family:Georgia;-inkscape-font-specification:Georgia"
             id="text4247"
             transform="matrix(0.9971774,0.07508154,0.07508154,-0.9971774,390.96,410.6636)"><tspan
               id="tspan4249"
               y="0"
               x="0"
               style="font-variant:normal;font-weight:normal;font-stretch:normal;font-size:34.0762825px;font-family:Georgia;-inkscape-font-specification:Georgia;writing-mode:lr-tb;fill:#ffffff;fill-opacity:1;fill-rule:nonzero;stroke:none">.</tspan></text>
<text
             style="font-weight:normal;font-family:Georgia;-inkscape-font-specification:Georgia"
             id="text4251"
             transform="matrix(0.19565278,-0.98067323,-0.98067323,-0.19565278,397.8985,407.7063)"><tspan
               id="tspan4253"
               y="0"
               x="0"
               style="font-variant:normal;font-weight:normal;font-stretch:normal;font-size:34.07618332px;font-family:Georgia;-inkscape-font-specification:Georgia;writing-mode:lr-tb;fill:#ffffff;fill-opacity:1;fill-rule:nonzero;stroke:none">C</tspan></text>
<text
             style="font-weight:normal;font-family:Georgia;-inkscape-font-specification:Georgia"
             id="text4255"
             transform="matrix(-0.06759257,-0.99771301,-0.99771301,0.06759257,407.5941,383.7843)"><tspan
               id="tspan4257"
               y="0"
               x="0"
               style="font-variant:normal;font-weight:normal;font-stretch:normal;font-size:34.07623291px;font-family:Georgia;-inkscape-font-specification:Georgia;writing-mode:lr-tb;fill:#ffffff;fill-opacity:1;fill-rule:nonzero;stroke:none">O</tspan></text>
<text
             style="font-weight:normal;font-family:Georgia;-inkscape-font-specification:Georgia"
             id="text4259"
             transform="matrix(-0.17804944,-0.98402154,-0.98402154,0.17804944,409.7668,355.0184)"><tspan
               id="tspan4261"
               y="0"
               x="0"
               style="font-variant:normal;font-weight:normal;font-stretch:normal;font-size:34.07648849px;font-family:Georgia;-inkscape-font-specification:Georgia;writing-mode:lr-tb;fill:#ffffff;fill-opacity:1;fill-rule:nonzero;stroke:none">M</tspan></text>
</g></g><g
         inkscape:export-ydpi="300"
         inkscape:export-xdpi="300"
         inkscape:export-filename="C:\Users\Public\Documents\Sean's Logo\rect3548.png"
         transform="translate(316.667,271)"
         id="g4263"><path
           inkscape:connector-curvature="0"
           id="path4265"
           style="fill:#000000;fill-opacity:1;fill-rule:nonzero;stroke:none"
           d="m 0,0 -38,1.333 1.667,155 31.999,1 L 0,0 Z" /></g><g
         id="g4267"><g
           clip-path="url(#clipPath4271)"
           id="g4269"><g
             transform="translate(283.333,354)"
             id="g4275"><path
               inkscape:connector-curvature="0"
               id="path4277"
               style="fill:#000000;fill-opacity:1;fill-rule:nonzero;stroke:none"
               d="m 0,0 c 0,0 -3.901,-22.158 -8,-31.667 -8.334,-19.334 -40.333,-36.334 -51.667,-48.001 -12.672,-13.045 -61,-58.333 -57,-110.333 4,-52 38.64,-117.304 134,-116.665 99.334,0.665 135.334,58.666 133.334,123.999 -2,65.333 -74.668,112.667 -81.334,118.334 C 62.667,-58.666 38,-52.001 26.333,0 15.873,46.62 0,0 0,0" /></g><g
             transform="translate(350.333,245.666)"
             id="g4279"><path
               inkscape:connector-curvature="0"
               id="path4281"
               style="fill:#ffffff;fill-opacity:1;fill-rule:nonzero;stroke:none"
               d="m 0,0 c 0,-28.167 -22.833,-51 -51,-51 -28.167,0 -51,22.833 -51,51 0,28.167 22.833,51 51,51 C -22.833,51 0,28.167 0,0" /></g><g
             transform="translate(350.333,245.666)"
             id="g4283"><path
               inkscape:connector-curvature="0"
               id="path4285"
               style="fill:none;stroke:#000000;stroke-width:1;stroke-linecap:butt;stroke-linejoin:miter;stroke-miterlimit:4;stroke-dasharray:none;stroke-opacity:1"
               d="m 0,0 c 0,-28.167 -22.833,-51 -51,-51 -28.167,0 -51,22.833 -51,51 0,28.167 22.833,51 51,51 C -22.833,51 0,28.167 0,0 Z" /></g><g
             transform="translate(336,245.666)"
             id="g4287"><path
               inkscape:connector-curvature="0"
               id="path4289"
               style="fill:#ffffff;fill-opacity:1;fill-rule:nonzero;stroke:none"
               d="m 0,0 c 0,-20.435 -16.565,-37 -37,-37 -20.435,0 -37,16.565 -37,37 0,20.435 16.565,37 37,37 C -16.565,37 0,20.435 0,0" /></g><g
             transform="translate(336,245.666)"
             id="g4291"><path
               inkscape:connector-curvature="0"
               id="path4293"
               style="fill:none;stroke:#000000;stroke-width:4;stroke-linecap:butt;stroke-linejoin:miter;stroke-miterlimit:4;stroke-dasharray:none;stroke-opacity:1"
               d="m 0,0 c 0,-20.435 -16.565,-37 -37,-37 -20.435,0 -37,16.565 -37,37 0,20.435 16.565,37 37,37 C -16.565,37 0,20.435 0,0 Z" /></g><g
             transform="translate(345.333,245.166)"
             id="g4295"><path
               inkscape:connector-curvature="0"
               id="path4297"
               style="fill:none;stroke:#000000;stroke-width:1.5;stroke-linecap:butt;stroke-linejoin:miter;stroke-miterlimit:4;stroke-dasharray:none;stroke-opacity:1"
               d="M 0,0 C 0,-25.682 -20.818,-46.5 -46.5,-46.5 -72.181,-46.5 -93,-25.682 -93,0 -93,25.682 -72.181,46.5 -46.5,46.5 -20.818,46.5 0,25.682 0,0 Z" /></g><g
             transform="translate(332.5,246)"
             id="g4299"><path
               inkscape:connector-curvature="0"
               id="path4301"
               style="fill:#000000;fill-opacity:1;fill-rule:nonzero;stroke:none"
               d="M 0,0 C 0,-18.502 -14.998,-33.5 -33.5,-33.5 -52.002,-33.5 -67,-18.502 -67,0 -67,18.502 -52.002,33.5 -33.5,33.5 -14.998,33.5 0,18.502 0,0" /></g><g
             transform="translate(248.333,168.666)"
             id="g4303"><path
               inkscape:connector-curvature="0"
               id="path4305"
               style="fill:#ffffff;fill-opacity:1;fill-rule:nonzero;stroke:none"
               d="m 0,0 c 0,0 1.333,-15.001 3,-16.334 1.667,-1.333 8.999,2.666 16.333,0 C 26.667,-19 40.334,-28.667 53.667,-28 c 14.081,0.704 18.333,5.332 28,10.666 9.667,5.334 16.333,2.666 18.666,3 C 102.666,-14 104.334,-2.333 103,0.333 102.333,1.666 0,0 0,0" /></g><g
             transform="translate(308.667,406.332)"
             id="g4307"><path
               inkscape:connector-curvature="0"
               id="path4309"
               style="fill:#ffffff;fill-opacity:1;fill-rule:nonzero;stroke:none"
               d="m 0,0 c 0,-2.024 -1.642,-3.666 -3.667,-3.666 -2.024,0 -3.666,1.642 -3.666,3.666 0,2.025 1.642,3.667 3.666,3.667 C -1.642,3.667 0,2.025 0,0" /></g><g
             transform="translate(291.333,406.332)"
             id="g4311"><path
               inkscape:connector-curvature="0"
               id="path4313"
               style="fill:#ffffff;fill-opacity:1;fill-rule:nonzero;stroke:none"
               d="m 0,0 c 0,-2.024 -1.642,-3.666 -3.667,-3.666 -2.024,0 -3.666,1.642 -3.666,3.666 0,2.025 1.642,3.667 3.666,3.667 C -1.642,3.667 0,2.025 0,0" /></g><g
             transform="translate(301,324.666)"
             id="g4315"><path
               inkscape:connector-curvature="0"
               id="path4317"
               style="fill:#ffffff;fill-opacity:1;fill-rule:nonzero;stroke:none"
               d="m 0,0 c 0,-2.024 -1.642,-3.666 -3.667,-3.666 -2.024,0 -3.666,1.642 -3.666,3.666 0,2.025 1.642,3.667 3.666,3.667 C -1.642,3.667 0,2.025 0,0" /></g><g
             transform="translate(301,343.999)"
             id="g4319"><path
               inkscape:connector-curvature="0"
               id="path4321"
               style="fill:#ffffff;fill-opacity:1;fill-rule:nonzero;stroke:none"
               d="m 0,0 c 0,-2.024 -1.642,-3.666 -3.667,-3.666 -2.024,0 -3.666,1.642 -3.666,3.666 0,2.025 1.642,3.667 3.666,3.667 C -1.642,3.667 0,2.025 0,0" /></g><g
             transform="translate(302,366.332)"
             id="g4323"><path
               inkscape:connector-curvature="0"
               id="path4325"
               style="fill:#ffffff;fill-opacity:1;fill-rule:nonzero;stroke:none"
               d="m 0,0 c 0,-2.024 -1.642,-3.666 -3.667,-3.666 -2.024,0 -3.666,1.642 -3.666,3.666 0,2.025 1.642,3.667 3.666,3.667 C -1.642,3.667 0,2.025 0,0" /></g><g
             transform="translate(281.333,384.999)"
             id="g4327"><path
               inkscape:connector-curvature="0"
               id="path4329"
               style="fill:none;stroke:#ffffff;stroke-width:2;stroke-linecap:butt;stroke-linejoin:miter;stroke-miterlimit:4;stroke-dasharray:none;stroke-opacity:1"
               d="M 0,0 31,0" /></g><g
             transform="translate(280.666,413.333)"
             id="g4331"><path
               inkscape:connector-curvature="0"
               id="path4333"
               style="fill:none;stroke:#ffffff;stroke-width:2;stroke-linecap:butt;stroke-linejoin:miter;stroke-miterlimit:4;stroke-dasharray:none;stroke-opacity:1"
               d="M 0,0 31,0" /></g><g
             transform="translate(281.999,329.999)"
             id="g4335"><path
               inkscape:connector-curvature="0"
               id="path4337"
               style="fill:none;stroke:#ffffff;stroke-width:2;stroke-linecap:butt;stroke-linejoin:miter;stroke-miterlimit:4;stroke-dasharray:none;stroke-opacity:1"
               d="M 0,0 31,0" /></g><g
             transform="translate(280.667,319.999)"
             id="g4339"><path
               inkscape:connector-curvature="0"
               id="path4341"
               style="fill:none;stroke:#ffffff;stroke-width:2;stroke-linecap:butt;stroke-linejoin:miter;stroke-miterlimit:4;stroke-dasharray:none;stroke-opacity:1"
               d="M 0,0 31.667,0" /></g><g
             transform="translate(281,311.332)"
             id="g4343"><path
               inkscape:connector-curvature="0"
               id="path4345"
               style="fill:none;stroke:#ffffff;stroke-width:2;stroke-linecap:butt;stroke-linejoin:miter;stroke-miterlimit:4;stroke-dasharray:none;stroke-opacity:1"
               d="M 0,0 32.333,0" /></g><g
             transform="translate(281,302.999)"
             id="g4347"><path
               inkscape:connector-curvature="0"
               id="path4349"
               style="fill:none;stroke:#ffffff;stroke-width:2;stroke-linecap:butt;stroke-linejoin:miter;stroke-miterlimit:4;stroke-dasharray:none;stroke-opacity:1"
               d="M 0,0 33,0" /></g><g
             transform="translate(280,339.332)"
             id="g4351"><path
               inkscape:connector-curvature="0"
               id="path4353"
               style="fill:none;stroke:#ffffff;stroke-width:2;stroke-linecap:butt;stroke-linejoin:miter;stroke-miterlimit:4;stroke-dasharray:none;stroke-opacity:1"
               d="M 0,0 36,0" /></g><g
             transform="translate(281,349.999)"
             id="g4355"><path
               inkscape:connector-curvature="0"
               id="path4357"
               style="fill:none;stroke:#ffffff;stroke-width:2;stroke-linecap:butt;stroke-linejoin:miter;stroke-miterlimit:4;stroke-dasharray:none;stroke-opacity:1"
               d="M 0,0 31,0" /></g><g
             transform="translate(281,361.666)"
             id="g4359"><path
               inkscape:connector-curvature="0"
               id="path4361"
               style="fill:none;stroke:#ffffff;stroke-width:2;stroke-linecap:butt;stroke-linejoin:miter;stroke-miterlimit:4;stroke-dasharray:none;stroke-opacity:1"
               d="M 0,0 31,0" /></g><g
             transform="translate(280.667,372.999)"
             id="g4363"><path
               inkscape:connector-curvature="0"
               id="path4365"
               style="fill:none;stroke:#ffffff;stroke-width:2;stroke-linecap:butt;stroke-linejoin:miter;stroke-miterlimit:4;stroke-dasharray:none;stroke-opacity:1"
               d="M 0,0 31,0" /></g><g
             transform="translate(280,398.666)"
             id="g4367"><path
               inkscape:connector-curvature="0"
               id="path4369"
               style="fill:none;stroke:#ffffff;stroke-width:2;stroke-linecap:butt;stroke-linejoin:miter;stroke-miterlimit:4;stroke-dasharray:none;stroke-opacity:1"
               d="M 0,0 31,0" /></g><path
             inkscape:connector-curvature="0"
             id="path4371"
             style="fill:#ffffff;fill-opacity:1;fill-rule:nonzero;stroke:none"
             d="m 322.5,163.5 -44,0 0,2.25 44,0 0,-2.25 z" /><g
             transform="translate(288,155.75)"
             id="g4373"><path
               inkscape:connector-curvature="0"
               id="path4375"
               style="fill:#ffffff;fill-opacity:1;fill-rule:nonzero;stroke:none"
               d="m 0,0 c 0,-1.312 -1.063,-2.375 -2.375,-2.375 -1.312,0 -2.375,1.063 -2.375,2.375 0,1.312 1.063,2.375 2.375,2.375 C -1.063,2.375 0,1.312 0,0" /></g><g
             transform="translate(317.5,149.25)"
             id="g4377"><path
               inkscape:connector-curvature="0"
               id="path4379"
               style="fill:#ffffff;fill-opacity:1;fill-rule:nonzero;stroke:none"
               d="m 0,0 c 0,-1.312 -1.063,-2.375 -2.375,-2.375 -1.312,0 -2.375,1.063 -2.375,2.375 0,1.312 1.063,2.375 2.375,2.375 C -1.063,2.375 0,1.312 0,0" /></g><g
             transform="translate(319,155.75)"
             id="g4381"><path
               inkscape:connector-curvature="0"
               id="path4383"
               style="fill:#ffffff;fill-opacity:1;fill-rule:nonzero;stroke:none"
               d="m 0,0 c 0,-1.312 -1.063,-2.375 -2.375,-2.375 -1.312,0 -2.375,1.063 -2.375,2.375 0,1.312 1.063,2.375 2.375,2.375 C -1.063,2.375 0,1.312 0,0" /></g><g
             transform="translate(309.125,155.75)"
             id="g4385"><path
               inkscape:connector-curvature="0"
               id="path4387"
               style="fill:#ffffff;fill-opacity:1;fill-rule:nonzero;stroke:none"
               d="m 0,0 c 0,-1.312 -1.063,-2.375 -2.375,-2.375 -1.312,0 -2.375,1.063 -2.375,2.375 0,1.312 1.063,2.375 2.375,2.375 C -1.063,2.375 0,1.312 0,0" /></g><g
             transform="translate(306.875,149.25)"
             id="g4389"><path
               inkscape:connector-curvature="0"
               id="path4391"
               style="fill:#ffffff;fill-opacity:1;fill-rule:nonzero;stroke:none"
               d="m 0,0 c 0,-1.312 -1.063,-2.375 -2.375,-2.375 -1.312,0 -2.375,1.063 -2.375,2.375 0,1.312 1.063,2.375 2.375,2.375 C -1.063,2.375 0,1.312 0,0" /></g><g
             transform="translate(290.375,149.25)"
             id="g4393"><path
               inkscape:connector-curvature="0"
               id="path4395"
               style="fill:#ffffff;fill-opacity:1;fill-rule:nonzero;stroke:none"
               d="m 0,0 c 0,-1.312 -1.063,-2.375 -2.375,-2.375 -1.312,0 -2.375,1.063 -2.375,2.375 0,1.312 1.063,2.375 2.375,2.375 C -1.063,2.375 0,1.312 0,0" /></g><g
             transform="translate(299.5,149.25)"
             id="g4397"><path
               inkscape:connector-curvature="0"
               id="path4399"
               style="fill:#ffffff;fill-opacity:1;fill-rule:nonzero;stroke:none"
               d="m 0,0 c 0,-1.312 -1.063,-2.375 -2.375,-2.375 -1.312,0 -2.375,1.063 -2.375,2.375 0,1.312 1.063,2.375 2.375,2.375 C -1.063,2.375 0,1.312 0,0" /></g><g
             transform="translate(297,155.75)"
             id="g4401"><path
               inkscape:connector-curvature="0"
               id="path4403"
               style="fill:#ffffff;fill-opacity:1;fill-rule:nonzero;stroke:none"
               d="m 0,0 c 0,-1.312 -1.063,-2.375 -2.375,-2.375 -1.312,0 -2.375,1.063 -2.375,2.375 0,1.312 1.063,2.375 2.375,2.375 C -1.063,2.375 0,1.312 0,0" /></g><text
             style="font-weight:normal;font-family:Georgia;-inkscape-font-specification:Georgia"
             id="text4405"
             transform="matrix(0.99702659,0.0770583,0.0770583,-0.99702659,263.3066,455.9938)"><tspan
               id="tspan4407"
               y="0"
               x="0"
               style="font-variant:normal;font-weight:normal;font-stretch:normal;font-size:41.99677277px;font-family:Georgia;-inkscape-font-specification:Georgia;writing-mode:lr-tb;fill:#ffffff;fill-opacity:1;fill-rule:nonzero;stroke:none">T</tspan></text>
<g
             transform="translate(288.3325,429.8335)"
             id="g4409"><path
               inkscape:connector-curvature="0"
               id="path4411"
               style="fill:none;stroke:#ffffff;stroke-width:1;stroke-linecap:butt;stroke-linejoin:miter;stroke-miterlimit:4;stroke-dasharray:none;stroke-opacity:1"
               d="M 0,0 0,-135.334" /></g><g
             transform="translate(304.9985,429.8335)"
             id="g4413"><path
               inkscape:connector-curvature="0"
               id="path4415"
               style="fill:none;stroke:#ffffff;stroke-width:1;stroke-linecap:butt;stroke-linejoin:miter;stroke-miterlimit:4;stroke-dasharray:none;stroke-opacity:1"
               d="M 0,0 0,-135.334" /></g><g
             transform="translate(299.4434,429.8335)"
             id="g4417"><path
               inkscape:connector-curvature="0"
               id="path4419"
               style="fill:none;stroke:#ffffff;stroke-width:1;stroke-linecap:butt;stroke-linejoin:miter;stroke-miterlimit:4;stroke-dasharray:none;stroke-opacity:1"
               d="M 0,0 0,-135.333" /></g><g
             transform="translate(293.8877,429.834)"
             id="g4421"><path
               inkscape:connector-curvature="0"
               id="path4423"
               style="fill:none;stroke:#ffffff;stroke-width:1;stroke-linecap:butt;stroke-linejoin:miter;stroke-miterlimit:4;stroke-dasharray:none;stroke-opacity:1"
               d="M 0,0 0,-135.335" /></g></g></g><flowRoot
         style="font-style:normal;font-weight:normal;font-size:40px;line-height:125%;font-family:Sans;letter-spacing:0px;word-spacing:0px;fill:#000000;fill-opacity:1;stroke:none"
         id="flowRoot4425"
         xml:space="preserve"><flowRegion
           id="flowRegion4427"><rect
             y="421.85568"
             x="156.49484"
             height="132.68042"
             width="568.14435"
             id="rect4429" /></flowRegion><flowPara
           id="flowPara4431" /></flowRoot><flowRoot
         style="font-style:normal;font-weight:normal;font-size:40px;line-height:125%;font-family:Sans;letter-spacing:0px;word-spacing:0px;fill:#000000;fill-opacity:1;stroke:none"
         id="flowRoot4433"
         xml:space="preserve"><flowRegion
           id="flowRegion4435"><rect
             y="347.01031"
             x="122.47423"
             height="261.95877"
             width="500.10309"
             id="rect4437" /></flowRegion><flowPara
           id="flowPara4439" /></flowRoot><rect
         inkscape:export-ydpi="300"
         inkscape:export-xdpi="300"
         inkscape:export-filename="C:\Users\Public\Documents\Sean's Logo\rect3548.png"
         ry="0"
         transform="matrix(0.8,0,0,-0.8,0,792)"
         y="350.09879"
         x="171.8512"
         height="403.78046"
         width="402.3833"
         id="rect3538"
         style="fill:none" /><rect
         inkscape:export-ydpi="300"
         inkscape:export-xdpi="300"
         inkscape:export-filename="C:\Users\Public\Documents\Sean's Logo\rect3548.png"
         transform="matrix(0.8,0,0,-0.8,0,792)"
         y="354.29028"
         x="170.45404"
         height="398.1918"
         width="402.3833"
         id="rect3542"
         style="fill:none" /><rect
         transform="matrix(0.8,0,0,-0.8,0,792)"
         y="285.82922"
         x="107.58164"
         height="44.709255"
         width="47.503582"
         id="rect3544"
         style="fill:none" /><rect
         transform="matrix(0.8,0,0,-0.8,0,792)"
         y="274.65192"
         x="169.05687"
         height="444.29822"
         width="395.39746"
         id="rect3546"
         style="fill:none" /><rect
         inkscape:export-ydpi="300"
         inkscape:export-xdpi="300"
         transform="matrix(0.8,0,0,-0.8,0,792)"
         y="351.49594"
         x="170.45404"
         height="402.38321"
         width="402.38324"
         id="rect3548"
         style="fill:none" /><rect
         transform="scale(1,-1)"
         y="-175.1548"
         x="9.4842625"
         height="161.71877"
         width="597.50873"
         id="rect3566"
         style="fill:#ffffff;fill-opacity:1" /><path
         inkscape:connector-curvature="0"
         id="path3930"
         d="m 78.399717,559.68755 0,-419.15 447.075003,0 0,419.15 -447.075003,0 z m 218.925003,-39.275 c 94.76688,0 171.575,-76.80812 171.575,-171.575 0,-94.76688 -76.80812,-171.6 -171.575,-171.6 -94.76688,0 -171.6,76.83312 -171.6,171.6 0,94.76688 76.83312,171.575 171.6,171.575 z"
         style="fill:#ffffff;fill-opacity:1;stroke:none;stroke-width:0.68229717;stroke-linejoin:miter;stroke-miterlimit:4;stroke-dasharray:none;stroke-opacity:1" /></g></g></svg>